HIERARCHY
ROOT Hips
{
	OFFSET 0.000000 0.000000 0.000000
	CHANNELS 6 Xposition Yposition Zposition Xrotation Yrotation Zrotation
	JOINT Thigh.L
	{
		OFFSET 0.055510 0.027394 -0.095006
		CHANNELS 3 Xrotation Yrotation Zrotation
		JOINT Shin.L
		{
			OFFSET 0.060051 0.006777 -0.412139
			CHANNELS 3 Xrotation Yrotation Zrotation
			JOINT Foot.L
			{
				OFFSET -0.042283 0.032148 -0.437493
				CHANNELS 3 Xrotation Yrotation Zrotation
				JOINT Toe.L
				{
					OFFSET 0.048154 -0.126422 -0.064326
					CHANNELS 3 Xrotation Yrotation Zrotation
					End Site
					{
						OFFSET 0.000000 0.050000 0.000000
					}
				}
			}
		}
	}
	JOINT Thigh.R
	{
		OFFSET -0.060661 0.021778 -0.107546
		CHANNELS 3 Xrotation Yrotation Zrotation
		JOINT Shin.R
		{
			OFFSET -0.049032 0.014767 -0.393589
			CHANNELS 3 Xrotation Yrotation Zrotation
			JOINT Foot.R
			{
				OFFSET 0.014205 0.020259 -0.446530
				CHANNELS 3 Xrotation Yrotation Zrotation
				JOINT Toe.R
				{
					OFFSET -0.039590 -0.127255 -0.064170
					CHANNELS 3 Xrotation Yrotation Zrotation
					End Site
					{
						OFFSET 0.000000 0.050000 0.000000
					}
				}
			}
		}
	}
	JOINT Spine
	{
		OFFSET -0.002667 0.027196 0.114116
		CHANNELS 3 Xrotation Yrotation Zrotation
		JOINT Spine.2
		{
			OFFSET 0.009088 0.006352 0.141469
			CHANNELS 3 Xrotation Yrotation Zrotation
			JOINT Chest
			{
				OFFSET -0.010919 -0.023574 0.056157
				CHANNELS 3 Xrotation Yrotation Zrotation
				JOINT Neck
				{
					OFFSET -0.012181 0.026227 0.169959
					CHANNELS 3 Xrotation Yrotation Zrotation
					JOINT Head
					{
						OFFSET 0.025448 -0.020462 0.168612
						CHANNELS 3 Xrotation Yrotation Zrotation
						End Site
						{
							OFFSET 0.000000 0.050000 0.000000
						}
					}
				}
				JOINT Clavicle.L
				{
					OFFSET 0.047548 0.004719 0.087525
					CHANNELS 3 Xrotation Yrotation Zrotation
					JOINT UpperArm.L
					{
						OFFSET 0.127315 0.013847 0.058762
						CHANNELS 3 Xrotation Yrotation Zrotation
						JOINT ForeArm.L
						{
							OFFSET 0.270058 0.042962 -0.075729
							CHANNELS 3 Xrotation Yrotation Zrotation
							JOINT Hand.L
							{
								OFFSET 0.273662 0.000845 0.022567
								CHANNELS 3 Xrotation Yrotation Zrotation
								JOINT Thumb1.L
								{
									OFFSET 0.154593 0.000369 0.009862
									CHANNELS 3 Xrotation Yrotation Zrotation
									JOINT Thumb2.L
									{
										OFFSET 0.029898 0.000092 0.002466
										CHANNELS 3 Xrotation Yrotation Zrotation
										End Site
										{
											OFFSET 0.024915 0.000077 0.002055
										}
									}
								}
								JOINT Index1.L
								{
									OFFSET 0.137593 0.000369 0.009862
									CHANNELS 3 Xrotation Yrotation Zrotation
									JOINT Index2.L
									{
										OFFSET 0.029898 0.000092 0.002466
										CHANNELS 3 Xrotation Yrotation Zrotation
										JOINT Index3.L
										{
											OFFSET 0.021925 0.000068 0.001808
											CHANNELS 3 Xrotation Yrotation Zrotation
											End Site
											{
												OFFSET 0.017939 0.000055 0.001479
											}
										}
									}
								}
								JOINT Middle1.L
								{
									OFFSET 0.119593 0.000369 0.009862
									CHANNELS 3 Xrotation Yrotation Zrotation
									JOINT Middle2.L
									{
										OFFSET 0.030895 0.000095 0.002548
										CHANNELS 3 Xrotation Yrotation Zrotation
										JOINT Middle3.L
										{
											OFFSET 0.021925 0.000068 0.001808
											CHANNELS 3 Xrotation Yrotation Zrotation
											End Site
											{
												OFFSET 0.017939 0.000055 0.001479
											}
										}
									}
								}
								JOINT Ring1.L
								{
									OFFSET 0.101593 0.000369 0.009862
									CHANNELS 3 Xrotation Yrotation Zrotation
									JOINT Ring2.L
									{
										OFFSET 0.028902 0.000089 0.002383
										CHANNELS 3 Xrotation Yrotation Zrotation
										JOINT Ring3.L
										{
											OFFSET 0.019932 0.000062 0.001644
											CHANNELS 3 Xrotation Yrotation Zrotation
											End Site
											{
												OFFSET 0.016942 0.000052 0.001397
											}
										}
									}
								}
								JOINT Pinky1.L
								{
									OFFSET 0.085593 0.000369 0.009862
									CHANNELS 3 Xrotation Yrotation Zrotation
									JOINT Pinky2.L
									{
										OFFSET 0.023919 0.000074 0.001972
										CHANNELS 3 Xrotation Yrotation Zrotation
										JOINT Pinky3.L
										{
											OFFSET 0.016942 0.000052 0.001397
											CHANNELS 3 Xrotation Yrotation Zrotation
											End Site
											{
												OFFSET 0.013953 0.000043 0.001151
											}
										}
									}
								}
							}
						}
					}
				}
				JOINT Clavicle.R
				{
					OFFSET -0.048428 0.010863 0.086664
					CHANNELS 3 Xrotation Yrotation Zrotation
					JOINT UpperArm.R
					{
						OFFSET -0.110398 0.010291 0.054870
						CHANNELS 3 Xrotation Yrotation Zrotation
						JOINT ForeArm.R
						{
							OFFSET -0.288430 0.027586 -0.039891
							CHANNELS 3 Xrotation Yrotation Zrotation
							JOINT Hand.R
							{
								OFFSET -0.269971 0.014373 -0.005266
								CHANNELS 3 Xrotation Yrotation Zrotation
								JOINT Thumb1.R
								{
									OFFSET -0.154808 0.006378 -0.002337
									CHANNELS 3 Xrotation Yrotation Zrotation
									JOINT Thumb2.R
									{
										OFFSET -0.029952 0.001595 -0.000584
										CHANNELS 3 Xrotation Yrotation Zrotation
										End Site
										{
											OFFSET -0.024960 0.001329 -0.000487
										}
									}
								}
								JOINT Index1.R
								{
									OFFSET -0.137808 0.006378 -0.002337
									CHANNELS 3 Xrotation Yrotation Zrotation
									JOINT Index2.R
									{
										OFFSET -0.029952 0.001595 -0.000584
										CHANNELS 3 Xrotation Yrotation Zrotation
										JOINT Index3.R
										{
											OFFSET -0.021965 0.001169 -0.000428
											CHANNELS 3 Xrotation Yrotation Zrotation
											End Site
											{
												OFFSET -0.017971 0.000957 -0.000351
											}
										}
									}
								}
								JOINT Middle1.R
								{
									OFFSET -0.119808 0.006378 -0.002337
									CHANNELS 3 Xrotation Yrotation Zrotation
									JOINT Middle2.R
									{
										OFFSET -0.030950 0.001648 -0.000604
										CHANNELS 3 Xrotation Yrotation Zrotation
										JOINT Middle3.R
										{
											OFFSET -0.021965 0.001169 -0.000428
											CHANNELS 3 Xrotation Yrotation Zrotation
											End Site
											{
												OFFSET -0.017971 0.000957 -0.000351
											}
										}
									}
								}
								JOINT Ring1.R
								{
									OFFSET -0.101808 0.006378 -0.002337
									CHANNELS 3 Xrotation Yrotation Zrotation
									JOINT Ring2.R
									{
										OFFSET -0.028953 0.001541 -0.000565
										CHANNELS 3 Xrotation Yrotation Zrotation
										JOINT Ring3.R
										{
											OFFSET -0.019968 0.001063 -0.000390
											CHANNELS 3 Xrotation Yrotation Zrotation
											End Site
											{
												OFFSET -0.016973 0.000904 -0.000331
											}
										}
									}
								}
								JOINT Pinky1.R
								{
									OFFSET -0.085808 0.006378 -0.002337
									CHANNELS 3 Xrotation Yrotation Zrotation
									JOINT Pinky2.R
									{
										OFFSET -0.023962 0.001276 -0.000467
										CHANNELS 3 Xrotation Yrotation Zrotation
										JOINT Pinky3.R
										{
											OFFSET -0.016973 0.000904 -0.000331
											CHANNELS 3 Xrotation Yrotation Zrotation
											End Site
											{
												OFFSET -0.013978 0.000744 -0.000273
											}
										}
									}
								}
							}
						}
					}
				}
			}
		}
	}
}
MOTION
Frames: 5
Frame Time: 0.04166667
-0.000968 -0.037599 1.026500 -4.118876 0.581912 -0.058163 5.273509 -2.656896 2.102175 2.421025 1.466236 -10.691075 -9.913648 -2.513900 9.376711 -0.841832 -2.082672 -1.355745 0.282206 3.052940 -2.480898 8.861853 0.972621 5.710449 -9.193316 -2.025668 -6.134042 -0.521928 -1.593125 0.754361 3.224011 0.941492 2.394077 -0.277511 -0.417317 -1.298063 2.368948 0.737188 0.032069 5.324477 1.293538 1.435760 2.429947 -1.108493 -0.561012 -0.833950 19.709318 -1.237043 27.594849 44.362553 -27.645518 20.592455 -0.451408 -23.872140 -1.601277 -0.615197 -10.887408 0.000000 0.000000 0.000000 0.000000 0.000000 0.000000 0.000000 0.000000 0.000000 0.000000 0.000000 0.000000 0.000000 0.000000 0.000000 0.000000 0.000000 0.000000 0.000000 0.000000 0.000000 0.000000 0.000000 0.000000 0.000000 0.000000 0.000000 0.000000 0.000000 0.000000 0.000000 0.000000 0.000000 0.000000 0.000000 0.000000 0.000000 0.000000 0.000000 0.000000 0.000000 0.000000 0.538531 -19.407755 6.492627 30.830112 -46.520548 29.087288 12.666652 -0.159681 25.928342 -3.851220 -0.173359 7.418777 0.000000 0.000000 0.000000 0.000000 0.000000 0.000000 0.000000 0.000000 0.000000 0.000000 0.000000 0.000000 0.000000 0.000000 0.000000 0.000000 0.000000 0.000000 0.000000 0.000000 0.000000 0.000000 0.000000 0.000000 0.000000 0.000000 0.000000 0.000000 0.000000 0.000000 0.000000 0.000000 0.000000 0.000000 0.000000 0.000000 0.000000 0.000000 0.000000 0.000000 0.000000 0.000000
-0.001497 -0.037753 1.026521 -4.121194 0.613373 -0.141984 5.203417 -2.643242 2.054017 2.566722 1.439363 -10.718973 -9.956441 -2.584587 9.474602 -0.840816 -2.074150 -1.353510 0.320143 3.061238 -2.443761 8.762131 0.958177 5.839366 -9.144832 -2.066555 -6.131704 -0.538609 -1.587527 0.749929 3.187746 0.937664 2.410139 -0.262861 -0.433554 -1.298463 2.365011 0.758125 0.053487 5.349768 1.299218 1.460130 2.504344 -1.092267 -0.599254 -0.882486 19.684941 -1.220709 27.691144 44.359387 -27.673090 20.686493 -0.458934 -23.920718 -1.621454 -0.620543 -10.925906 0.000000 0.000000 0.000000 0.000000 0.000000 0.000000 0.000000 0.000000 0.000000 0.000000 0.000000 0.000000 0.000000 0.000000 0.000000 0.000000 0.000000 0.000000 0.000000 0.000000 0.000000 0.000000 0.000000 0.000000 0.000000 0.000000 0.000000 0.000000 0.000000 0.000000 0.000000 0.000000 0.000000 0.000000 0.000000 0.000000 0.000000 0.000000 0.000000 0.000000 0.000000 0.000000 0.535481 -19.417091 6.503743 30.826595 -46.448442 29.093673 12.735697 -0.197583 25.925128 -3.883554 -0.184168 7.452555 0.000000 0.000000 0.000000 0.000000 0.000000 0.000000 0.000000 0.000000 0.000000 0.000000 0.000000 0.000000 0.000000 0.000000 0.000000 0.000000 0.000000 0.000000 0.000000 0.000000 0.000000 0.000000 0.000000 0.000000 0.000000 0.000000 0.000000 0.000000 0.000000 0.000000 0.000000 0.000000 0.000000 0.000000 0.000000 0.000000 0.000000 0.000000 0.000000 0.000000 0.000000 0.000000
-0.001563 -0.038182 1.026548 -4.137638 0.610412 -0.169002 5.192573 -2.615011 2.011522 2.590443 1.418436 -10.624053 -9.955534 -2.595581 9.480518 -0.832824 -2.065803 -1.349866 0.394875 3.083695 -2.460396 8.612572 0.943048 5.860228 -9.094800 -2.091354 -6.087462 -0.538076 -1.591349 0.740756 3.149703 0.940057 2.441617 -0.182678 -0.452748 -1.307245 2.335569 0.775579 0.062535 5.373484 1.324887 1.452227 2.528567 -1.064858 -0.651751 -0.919855 19.674750 -1.219119 27.768655 44.341162 -27.733032 20.636675 -0.460262 -23.961432 -1.659791 -0.612366 -10.972049 0.000000 0.000000 0.000000 0.000000 0.000000 0.000000 0.000000 0.000000 0.000000 0.000000 0.000000 0.000000 0.000000 0.000000 0.000000 0.000000 0.000000 0.000000 0.000000 0.000000 0.000000 0.000000 0.000000 0.000000 0.000000 0.000000 0.000000 0.000000 0.000000 0.000000 0.000000 0.000000 0.000000 0.000000 0.000000 0.000000 0.000000 0.000000 0.000000 0.000000 0.000000 0.000000 0.547350 -19.450377 6.545487 30.842756 -46.352795 29.126263 12.782522 -0.205320 25.912897 -3.868217 -0.147156 7.497470 0.000000 0.000000 0.000000 0.000000 0.000000 0.000000 0.000000 0.000000 0.000000 0.000000 0.000000 0.000000 0.000000 0.000000 0.000000 0.000000 0.000000 0.000000 0.000000 0.000000 0.000000 0.000000 0.000000 0.000000 0.000000 0.000000 0.000000 0.000000 0.000000 0.000000 0.000000 0.000000 0.000000 0.000000 0.000000 0.000000 0.000000 0.000000 0.000000 0.000000 0.000000 0.000000
-0.001490 -0.038644 1.026567 -4.143355 0.598495 -0.144213 5.181362 -2.579583 1.971389 2.563409 1.385586 -10.501762 -9.939288 -2.587316 9.459912 -0.824717 -2.046827 -1.350684 0.449848 3.101671 -2.477767 8.478398 0.930365 5.846326 -9.053328 -2.124849 -6.081721 -0.529066 -1.603049 0.736371 3.115244 0.941079 2.467572 -0.143184 -0.465408 -1.304298 2.320529 0.781046 0.070286 5.437227 1.334244 1.440918 2.608029 -1.049882 -0.654328 -0.956182 19.661964 -1.218581 27.824506 44.325799 -27.787639 20.568234 -0.442790 -24.027347 -1.764894 -0.610285 -11.038999 0.000000 0.000000 0.000000 0.000000 0.000000 0.000000 0.000000 0.000000 0.000000 0.000000 0.000000 0.000000 0.000000 0.000000 0.000000 0.000000 0.000000 0.000000 0.000000 0.000000 0.000000 0.000000 0.000000 0.000000 0.000000 0.000000 0.000000 0.000000 0.000000 0.000000 0.000000 0.000000 0.000000 0.000000 0.000000 0.000000 0.000000 0.000000 0.000000 0.000000 0.000000 0.000000 0.548048 -19.465096 6.564891 30.882041 -46.277014 29.146075 12.759262 -0.232634 25.927161 -3.864098 -0.092448 7.548032 0.000000 0.000000 0.000000 0.000000 0.000000 0.000000 0.000000 0.000000 0.000000 0.000000 0.000000 0.000000 0.000000 0.000000 0.000000 0.000000 0.000000 0.000000 0.000000 0.000000 0.000000 0.000000 0.000000 0.000000 0.000000 0.000000 0.000000 0.000000 0.000000 0.000000 0.000000 0.000000 0.000000 0.000000 0.000000 0.000000 0.000000 0.000000 0.000000 0.000000 0.000000 0.000000
-0.001401 -0.038745 1.026580 -4.145697 0.586697 -0.164274 5.198945 -2.550102 1.965945 2.526701 1.367422 -10.369080 -9.925171 -2.567104 9.430309 -0.819288 -2.037303 -1.350869 0.506254 3.120282 -2.522826 8.361909 0.929427 5.807072 -9.051469 -2.214484 -6.023120 -0.516598 -1.597736 0.732340 3.126869 0.929741 2.492291 -0.148568 -0.456385 -1.283679 2.323393 0.776798 0.089175 5.458699 1.339083 1.437911 2.636815 -1.046138 -0.647474 -0.996003 19.633889 -1.209295 27.841135 44.335368 -27.786173 20.574533 -0.408613 -24.089293 -1.839798 -0.585285 -11.111662 0.000000 0.000000 0.000000 0.000000 0.000000 0.000000 0.000000 0.000000 0.000000 0.000000 0.000000 0.000000 0.000000 0.000000 0.000000 0.000000 0.000000 0.000000 0.000000 0.000000 0.000000 0.000000 0.000000 0.000000 0.000000 0.000000 0.000000 0.000000 0.000000 0.000000 0.000000 0.000000 0.000000 0.000000 0.000000 0.000000 0.000000 0.000000 0.000000 0.000000 0.000000 0.000000 0.537092 -19.447839 6.566417 30.918406 -46.242838 29.151665 12.815714 -0.252066 25.961301 -3.778483 -0.060867 7.586779 0.000000 0.000000 0.000000 0.000000 0.000000 0.000000 0.000000 0.000000 0.000000 0.000000 0.000000 0.000000 0.000000 0.000000 0.000000 0.000000 0.000000 0.000000 0.000000 0.000000 0.000000 0.000000 0.000000 0.000000 0.000000 0.000000 0.000000 0.000000 0.000000 0.000000 0.000000 0.000000 0.000000 0.000000 0.000000 0.000000 0.000000 0.000000 0.000000 0.000000 0.000000 0.000000
